<svg xmlns="http://www.w3.org/2000/svg" width="163.995" height="20" viewBox="0 0 163.995 20">
  <g id="logo-marcas" transform="translate(-44.96 -32)">
    <path id="Path_160" data-name="Path 160" d="M12.742-11.28c0-4.456-3.392-5.852-6.734-5.852H1.752V-5.361H6.141C9.383-5.361,12.742-7.14,12.742-11.28Zm-2.959,0c0,2.627-1.879,3.458-3.907,3.458H4.529V-14.7H5.942C7.9-14.7,9.782-13.923,9.782-11.28ZM24.6-9.8v-7.332H21.753v7.1a2.141,2.141,0,0,1-2.211,2.427,2.149,2.149,0,0,1-2.211-2.427v-7.1H14.5V-9.8c0,2.826,1.929,4.755,5.021,4.755C22.6-5.045,24.6-6.974,24.6-9.8ZM37.249-6.99,35.27-8.852a3,3,0,0,1-2.494,1.2,3.324,3.324,0,0,1-3.342-3.608,3.389,3.389,0,0,1,3.392-3.608A2.935,2.935,0,0,1,35.2-13.79l1.929-1.929a6,6,0,0,0-4.406-1.729,6.032,6.032,0,0,0-6.384,6.185,6.047,6.047,0,0,0,6.335,6.218A5.846,5.846,0,0,0,37.249-6.99ZM49.4-5.361,44.514-17.132h-2.76L36.816-5.361h3.092l.865-2.311h4.556l.914,2.311ZM44.547-9.95H41.588l1.5-4.04Zm13.2-4.755v-2.427H48.255V-14.7H51.58v9.344h2.843V-14.7Zm4.157,9.344V-17.132h-2.86V-5.361Z" transform="translate(147.05 53.448)" fill="#cd0000"/>
    <rect id="Rectangle_83" data-name="Rectangle 83" width="1.5" height="20" transform="translate(135.302 32)" fill="#cd0000"/>
    <path id="Path_161" data-name="Path 161" d="M11.867-6.99,9.888-8.852a3,3,0,0,1-2.494,1.2,3.324,3.324,0,0,1-3.342-3.608,3.389,3.389,0,0,1,3.392-3.608A2.935,2.935,0,0,1,9.822-13.79l1.929-1.929a6,6,0,0,0-4.406-1.729A6.032,6.032,0,0,0,.96-11.263,6.047,6.047,0,0,0,7.295-5.045,5.846,5.846,0,0,0,11.867-6.99ZM24.02-5.361,19.132-17.132h-2.76L11.434-5.361h3.092l.865-2.311h4.556l.914,2.311ZM19.166-9.95H16.206l1.5-4.04ZM34.628-5.361,31.552-10.4A3.2,3.2,0,0,0,34-13.574c0-2.693-2.245-3.558-4.506-3.558H25V-5.361h2.793v-4.672h.964L31.3-5.361Zm-3.442-8.163c0,1.2-1.147,1.43-2.062,1.43H27.778v-2.743h1.513C30.139-14.838,31.186-14.622,31.186-13.524ZM45.651-5.361,42.575-10.4a3.2,3.2,0,0,0,2.444-3.176c0-2.693-2.245-3.558-4.506-3.558H36.024V-5.361h2.793v-4.672h.964l2.544,4.672Zm-3.442-8.163c0,1.2-1.147,1.43-2.062,1.43H38.8v-2.743h1.513C41.162-14.838,42.209-14.622,42.209-13.524ZM55.261-5.361V-7.788h-5.47v-2.444h4.888V-12.51H49.791v-2.211h5.171v-2.411H47.047V-5.361Zm11.505,0L63.69-10.4a3.2,3.2,0,0,0,2.444-3.176c0-2.693-2.245-3.558-4.506-3.558H57.139V-5.361h2.793v-4.672H60.9l2.544,4.672Zm-3.442-8.163c0,1.2-1.147,1.43-2.062,1.43H59.916v-2.743h1.513C62.277-14.838,63.324-14.622,63.324-13.524ZM79.3-5.361,74.414-17.132h-2.76L66.716-5.361h3.092l.865-2.311h4.556l.914,2.311ZM74.447-9.95H71.488l1.5-4.04Z" transform="translate(44 53.448)" fill="#cd0000"/>
  </g>
</svg>
